# xmcd CD database file
#
# Track frame offsets:
#	150
#	23739
#	58621
#	87337
#	124860
#	144693
#	156884
#	169867
#
# Disc length: 2780 seconds
#
# Revision: 0
# Processed by: cddbd v1.5.2PL0 Copyright (c) Steve Scherf et al.
# Submitted via: CDex 1.70beta2
#
DISCID=680ada08
DTITLE=Rêve d'éléphant orchestra - Racines du ciel
DYEAR=2001
DGENRE=Jazz
TTITLE0=Les folies de Cécile
TTITLE1=Voltigeur
TTITLE2=Reverse, Hélas mon coeur
TTITLE3=Rêve d'éléphant
TTITLE4=Un chat sur le toit
TTITLE5=Ernesto
TTITLE6=Must
TTITLE7=Ganesh goes to Hollywood
EXTD=YEAR: 2001
EXTT0=
EXTT1=
EXTT2=
EXTT3=
EXTT4=
EXTT5=
EXTT6=
EXTT7=
PLAYORDER=
